<svg xmlns="http://www.w3.org/2000/svg" xmlns:xlink="http://www.w3.org/1999/xlink" width="500" zoomAndPan="magnify" viewBox="0 0 375 374.999991" height="500" preserveAspectRatio="xMidYMid meet" version="1.0"><defs><clipPath id="6db1933bff"><path d="M 24 0 L 368 0 L 368 370.5 L 24 370.5 Z M 24 0 " clip-rule="nonzero"/></clipPath></defs><path fill="#ffdc04" d="M 264.378906 116.894531 C 212.90625 119.570312 207.722656 136.097656 196.773438 156.289062 C 185.828125 176.480469 199.464844 212.136719 199.464844 212.136719 C 199.464844 212.136719 208.789062 237.554688 203.722656 257.546875 C 198.65625 277.542969 214.253906 280.667969 236.226562 287.714844 C 258.203125 294.765625 266.515625 297.355469 269.585938 288.011719 C 272.652344 278.667969 257.707031 260.753906 293.753906 251.589844 C 329.804688 242.421875 342.96875 219.914062 344.234375 198.632812 C 345.503906 177.351562 315.769531 114.242188 264.378906 116.894531 Z M 158.6875 53.449219 C 149.558594 40.066406 102.308594 15.835938 72.613281 41.414062 C 42.917969 66.988281 47.453125 79.402344 50.28125 96.644531 C 53.113281 113.886719 77.859375 129.011719 77.859375 129.011719 C 77.859375 129.011719 95.339844 139.9375 101.613281 154.410156 C 107.890625 168.878906 118.738281 163.417969 135.269531 157.476562 C 151.796875 151.539062 157.972656 149.164062 155.480469 142.136719 C 152.984375 135.109375 135.683594 131.207031 153.0625 108.957031 C 170.445312 86.707031 167.8125 66.890625 158.6875 53.449219 Z M 158.6875 53.449219 " fill-opacity="1" fill-rule="nonzero"/><g clip-path="url(#6db1933bff)"><path fill="#162f57" d="M 299.992188 129.664062 C 295.414062 126.765625 290.542969 124.488281 285.382812 122.839844 C 280.222656 121.191406 274.9375 120.21875 269.523438 119.925781 C 245.929688 118.675781 221.203125 130.832031 204.96875 151.597656 C 195.070312 164.386719 190.835938 177.648438 192.203125 192.160156 C 193.371094 204.59375 198.378906 215.917969 202.8125 225.8125 C 205.328125 231.03125 207.410156 236.417969 209.066406 241.96875 C 209.847656 244.898438 210.359375 247.878906 210.609375 250.902344 C 210.855469 253.925781 210.832031 256.945312 210.539062 259.964844 C 210.242188 262.984375 209.683594 265.957031 208.859375 268.875 C 208.03125 271.792969 206.953125 274.617188 205.625 277.34375 C 205.472656 277.605469 205.375 277.886719 205.335938 278.1875 C 205.296875 278.488281 205.316406 278.785156 205.394531 279.078125 C 205.472656 279.371094 205.605469 279.636719 205.789062 279.878906 C 205.976562 280.117188 206.199219 280.3125 206.460938 280.464844 C 206.726562 280.617188 207.007812 280.710938 207.308594 280.75 C 207.609375 280.789062 207.90625 280.769531 208.199219 280.6875 C 208.488281 280.609375 208.757812 280.476562 208.996094 280.292969 C 209.234375 280.105469 209.429688 279.882812 209.582031 279.621094 C 211.085938 276.648438 212.308594 273.566406 213.246094 270.371094 C 214.183594 267.175781 214.824219 263.921875 215.160156 260.605469 C 215.5 257.292969 215.53125 253.976562 215.261719 250.660156 C 214.988281 247.339844 214.414062 244.074219 213.542969 240.859375 C 211.835938 235.050781 209.664062 229.421875 207.027344 223.972656 C 198.496094 204.832031 187.886719 181.015625 208.632812 154.390625 C 223.953125 134.710938 247.234375 123.210938 269.386719 124.398438 C 284.253906 125.191406 305.59375 131.960938 322.835938 159.714844 C 340.652344 188.457031 331.191406 214.214844 323.945312 227.023438 C 312.503906 247.253906 293.101562 260.675781 282.035156 260.675781 L 281.480469 260.675781 C 271.40625 260.675781 263.765625 266.613281 259.410156 277.898438 C 257.386719 283.308594 256.21875 288.898438 255.90625 294.664062 C 255.894531 294.964844 255.941406 295.253906 256.046875 295.535156 C 256.152344 295.816406 256.304688 296.066406 256.511719 296.285156 C 256.714844 296.503906 256.953125 296.675781 257.226562 296.800781 C 257.496094 296.921875 257.785156 296.992188 258.082031 297 C 258.375 297 258.65625 296.945312 258.929688 296.835938 C 259.199219 296.726562 259.441406 296.570312 259.652344 296.367188 C 259.863281 296.164062 260.027344 295.929688 260.144531 295.664062 C 260.265625 295.394531 260.328125 295.117188 260.339844 294.824219 C 260.339844 294.507812 261.546875 265.128906 281.402344 265.128906 L 281.9375 265.128906 C 294.25 265.128906 315.175781 251.449219 327.804688 229.140625 C 335.523438 215.480469 345.621094 187.984375 326.597656 157.261719 C 323.273438 151.707031 319.363281 146.601562 314.871094 141.941406 C 310.378906 137.28125 305.417969 133.191406 299.992188 129.664062 Z M 254.339844 312.460938 C 254.652344 312.125 254.910156 311.75 255.113281 311.335938 C 255.320312 310.925781 255.464844 310.496094 255.546875 310.042969 C 255.632812 309.59375 255.652344 309.136719 255.609375 308.679688 C 255.566406 308.222656 255.460938 307.78125 255.292969 307.355469 C 253.488281 301.414062 244.246094 296.703125 227.003906 293.101562 C 219.023438 291.480469 210.976562 290.277344 202.871094 289.5 C 202.578125 289.480469 202.292969 289.519531 202.015625 289.617188 C 201.738281 289.710938 201.492188 289.855469 201.269531 290.046875 C 201.046875 290.238281 200.871094 290.464844 200.738281 290.722656 C 200.601562 290.984375 200.523438 291.261719 200.5 291.554688 C 200.472656 291.84375 200.503906 292.132812 200.589844 292.410156 C 200.671875 292.691406 200.808594 292.945312 200.992188 293.171875 C 201.179688 293.402344 201.398438 293.585938 201.65625 293.726562 C 201.910156 293.867188 202.183594 293.957031 202.476562 293.992188 C 210.414062 294.769531 218.292969 295.949219 226.113281 297.535156 C 246.839844 301.871094 250.382812 306.761719 250.957031 308.660156 C 251.039062 308.882812 251.082031 309.113281 251.074219 309.355469 C 250.898438 309.511719 249.550781 310.460938 242.445312 309.355469 C 237.257812 308.523438 230.683594 306.839844 224.332031 305.234375 C 213.859375 302.582031 203.980469 300.070312 198.773438 300.742188 C 195.25 301.179688 194.65625 302.878906 194.65625 304.128906 C 194.65625 305.375 194.855469 308.421875 215.519531 314.402344 C 224.945312 317.113281 237.988281 320.144531 246.324219 320.460938 C 247.441406 320.476562 248.542969 320.621094 249.628906 320.894531 C 247.71875 322.425781 245.59375 323.554688 243.253906 324.28125 C 238.503906 325.921875 233.953125 326.160156 231.675781 324.875 C 227.359375 322.480469 220.964844 321.269531 214.789062 320.082031 C 209.800781 319.132812 202.277344 317.707031 201.40625 315.945312 C 201.273438 315.675781 201.097656 315.441406 200.875 315.246094 C 200.648438 315.046875 200.394531 314.898438 200.113281 314.800781 C 199.828125 314.703125 199.539062 314.664062 199.238281 314.683594 C 198.941406 314.699219 198.65625 314.777344 198.386719 314.90625 C 198.117188 315.039062 197.886719 315.214844 197.6875 315.441406 C 197.488281 315.664062 197.339844 315.917969 197.242188 316.199219 C 197.144531 316.484375 197.105469 316.773438 197.125 317.074219 C 197.140625 317.371094 197.21875 317.65625 197.347656 317.925781 C 199.210938 321.707031 205.703125 322.933594 213.9375 324.496094 C 219.875 325.605469 225.816406 326.753906 229.457031 328.8125 C 231.417969 329.8125 233.496094 330.273438 235.691406 330.199219 C 238.660156 330.113281 241.546875 329.59375 244.355469 328.644531 C 247.167969 327.691406 249.777344 326.351562 252.183594 324.617188 C 254.757812 322.457031 254.816406 320.65625 254.402344 319.371094 C 253.429688 316.539062 249.433594 316.046875 246.480469 315.945312 C 236.945312 315.074219 227.585938 313.269531 218.410156 310.523438 C 213.015625 309.09375 207.738281 307.316406 202.574219 305.195312 C 209.550781 306.195312 216.425781 307.660156 223.203125 309.589844 C 240.1875 313.867188 250.660156 316.300781 254.339844 312.460938 Z M 260.28125 249.726562 C 251.492188 256.933594 247.273438 260.535156 247.136719 263.585938 C 247.121094 263.882812 247.164062 264.171875 247.265625 264.453125 C 247.367188 264.734375 247.519531 264.984375 247.71875 265.203125 C 247.917969 265.425781 248.152344 265.597656 248.421875 265.726562 C 248.691406 265.855469 248.976562 265.925781 249.273438 265.941406 L 249.390625 265.941406 C 249.667969 265.941406 249.933594 265.894531 250.191406 265.796875 C 250.449219 265.703125 250.683594 265.5625 250.890625 265.378906 C 251.097656 265.195312 251.261719 264.984375 251.390625 264.738281 C 251.519531 264.496094 251.597656 264.234375 251.628906 263.960938 C 252.203125 262.257812 258.519531 257.074219 263.128906 253.269531 C 275.742188 242.917969 284.570312 235.097656 283.660156 228.824219 C 283.554688 228.226562 283.371094 227.65625 283.113281 227.109375 C 282.851562 226.5625 282.523438 226.058594 282.125 225.601562 C 281.726562 225.144531 281.273438 224.75 280.769531 224.414062 C 280.265625 224.082031 279.722656 223.824219 279.144531 223.636719 C 278.199219 223.238281 277.21875 222.949219 276.203125 222.773438 C 275.191406 222.59375 274.171875 222.527344 273.144531 222.574219 C 272.117188 222.625 271.109375 222.785156 270.117188 223.054688 C 269.125 223.328125 268.175781 223.707031 267.269531 224.191406 C 266.417969 217.957031 263.46875 213.441406 258.835938 211.660156 C 257.878906 211.296875 256.890625 211.074219 255.871094 210.992188 C 254.855469 210.910156 253.84375 210.96875 252.839844 211.171875 C 251.839844 211.375 250.886719 211.714844 249.980469 212.1875 C 249.074219 212.660156 248.25 213.25 247.511719 213.957031 C 244.917969 211.304688 241.175781 210.96875 236.882812 213.085938 C 217.085938 222.824219 229.773438 257.625 230.328125 259.089844 C 230.429688 259.371094 230.582031 259.621094 230.785156 259.84375 C 230.988281 260.0625 231.222656 260.234375 231.496094 260.363281 C 231.765625 260.488281 232.050781 260.558594 232.347656 260.570312 C 232.648438 260.585938 232.9375 260.539062 233.21875 260.4375 C 233.5 260.332031 233.746094 260.175781 233.96875 259.972656 C 234.1875 259.765625 234.359375 259.527344 234.484375 259.257812 C 234.609375 258.984375 234.679688 258.699219 234.695312 258.398438 C 234.707031 258.101562 234.664062 257.808594 234.566406 257.527344 C 234.425781 257.210938 222.6875 225.082031 238.878906 217.125 C 241.949219 215.621094 243.492188 216.171875 244.441406 217.261719 C 238.703125 224.984375 235.535156 239.214844 240.207031 245.648438 C 240.332031 245.871094 240.480469 246.078125 240.652344 246.269531 C 240.820312 246.460938 241.007812 246.632812 241.210938 246.785156 C 241.417969 246.941406 241.632812 247.070312 241.867188 247.179688 C 242.097656 247.289062 242.335938 247.371094 242.585938 247.429688 C 242.832031 247.492188 243.085938 247.523438 243.339844 247.53125 C 243.597656 247.539062 243.851562 247.519531 244.101562 247.476562 C 244.355469 247.433594 244.597656 247.363281 244.835938 247.269531 C 245.074219 247.175781 245.296875 247.058594 245.511719 246.917969 C 249.15625 244.582031 250.539062 235.851562 250.878906 233.238281 C 251.273438 230.207031 251.867188 223.140625 249.886719 217.875 C 250.332031 217.367188 250.839844 216.9375 251.414062 216.578125 C 251.988281 216.222656 252.597656 215.957031 253.25 215.78125 C 253.902344 215.601562 254.566406 215.523438 255.238281 215.546875 C 255.914062 215.566406 256.570312 215.683594 257.210938 215.894531 C 261.746094 217.636719 262.8125 223.160156 262.972656 227.101562 C 261.964844 227.960938 261.027344 228.890625 260.160156 229.890625 C 255.210938 235.515625 251.214844 244.402344 253.410156 248.164062 C 253.617188 248.511719 253.871094 248.820312 254.175781 249.082031 C 254.480469 249.347656 254.820312 249.558594 255.191406 249.710938 C 255.566406 249.863281 255.953125 249.953125 256.359375 249.980469 C 256.761719 250.007812 257.15625 249.96875 257.546875 249.867188 C 263.070312 248.699219 266.753906 239.175781 267.445312 230.824219 C 267.445312 230.308594 267.445312 229.792969 267.546875 229.296875 C 268.230469 228.746094 268.976562 228.292969 269.78125 227.9375 C 270.585938 227.585938 271.421875 227.34375 272.292969 227.210938 C 273.164062 227.082031 274.035156 227.066406 274.90625 227.167969 C 275.78125 227.273438 276.625 227.488281 277.441406 227.8125 C 279.125 228.527344 279.226562 229.238281 279.265625 229.476562 C 279.777344 233.59375 267.527344 243.710938 260.222656 249.726562 Z M 246.421875 232.484375 C 246.109375 235.96875 245.15625 239.265625 243.570312 242.382812 C 241.234375 238.425781 242.679688 229 246.421875 222.332031 C 246.894531 225.714844 246.886719 229.101562 246.402344 232.484375 Z M 257.25 245.074219 C 258.042969 241.003906 259.757812 237.367188 262.398438 234.167969 C 261.289062 239.808594 258.953125 243.949219 257.230469 245.074219 Z M 320.597656 121.269531 C 321.34375 121.265625 321.945312 120.96875 322.398438 120.378906 L 333.824219 105.492188 C 334.003906 105.253906 334.132812 104.992188 334.210938 104.703125 C 334.285156 104.414062 334.304688 104.121094 334.265625 103.824219 C 334.226562 103.53125 334.132812 103.25 333.984375 102.992188 C 333.832031 102.734375 333.640625 102.515625 333.402344 102.332031 C 333.164062 102.148438 332.902344 102.019531 332.613281 101.941406 C 332.324219 101.863281 332.03125 101.84375 331.738281 101.882812 C 331.441406 101.921875 331.160156 102.015625 330.902344 102.164062 C 330.644531 102.3125 330.421875 102.503906 330.238281 102.742188 L 318.816406 117.628906 C 318.5625 117.96875 318.414062 118.355469 318.371094 118.78125 C 318.332031 119.207031 318.40625 119.609375 318.59375 119.996094 C 318.78125 120.378906 319.054688 120.6875 319.417969 120.914062 C 319.777344 121.144531 320.171875 121.261719 320.597656 121.269531 Z M 333.230469 140.691406 C 333.410156 141.074219 333.679688 141.386719 334.035156 141.621094 C 334.390625 141.855469 334.78125 141.980469 335.207031 141.996094 C 335.546875 141.992188 335.871094 141.921875 336.179688 141.78125 L 353.023438 133.722656 C 353.292969 133.589844 353.527344 133.414062 353.726562 133.1875 C 353.925781 132.964844 354.074219 132.710938 354.171875 132.425781 C 354.269531 132.140625 354.3125 131.851562 354.292969 131.550781 C 354.273438 131.25 354.199219 130.964844 354.070312 130.695312 C 353.9375 130.425781 353.761719 130.191406 353.535156 129.992188 C 353.3125 129.792969 353.058594 129.644531 352.773438 129.546875 C 352.492188 129.445312 352.199219 129.40625 351.898438 129.421875 C 351.601562 129.441406 351.316406 129.515625 351.046875 129.644531 L 334.078125 137.703125 C 333.832031 137.847656 333.617188 138.035156 333.441406 138.265625 C 333.265625 138.496094 333.136719 138.75 333.058594 139.027344 C 332.980469 139.304688 332.953125 139.585938 332.984375 139.875 C 333.011719 140.164062 333.09375 140.433594 333.230469 140.691406 Z M 222.015625 108.027344 C 222.195312 108.414062 222.460938 108.726562 222.820312 108.960938 C 223.175781 109.195312 223.566406 109.320312 223.992188 109.332031 C 224.320312 109.335938 224.628906 109.269531 224.925781 109.136719 C 225.199219 109.011719 225.4375 108.84375 225.640625 108.625 C 225.847656 108.40625 226.003906 108.15625 226.109375 107.875 C 226.214844 107.59375 226.261719 107.304688 226.253906 107.003906 C 226.242188 106.707031 226.175781 106.417969 226.050781 106.148438 L 218.410156 89.082031 C 218.28125 88.808594 218.101562 88.570312 217.875 88.371094 C 217.648438 88.167969 217.394531 88.015625 217.109375 87.917969 C 216.824219 87.816406 216.527344 87.773438 216.226562 87.792969 C 215.921875 87.808594 215.636719 87.882812 215.363281 88.011719 C 215.089844 88.144531 214.851562 88.324219 214.648438 88.550781 C 214.449219 88.773438 214.296875 89.03125 214.195312 89.316406 C 214.097656 89.601562 214.054688 89.894531 214.070312 90.199219 C 214.089844 90.5 214.164062 90.789062 214.292969 91.0625 Z M 365.121094 159.21875 L 346.414062 160.46875 C 346.113281 160.476562 345.828125 160.542969 345.554688 160.664062 C 345.28125 160.789062 345.042969 160.960938 344.835938 161.175781 C 344.632812 161.394531 344.476562 161.644531 344.371094 161.925781 C 344.265625 162.203125 344.214844 162.492188 344.226562 162.792969 C 344.234375 163.09375 344.300781 163.378906 344.425781 163.652344 C 344.546875 163.925781 344.71875 164.164062 344.9375 164.367188 C 345.152344 164.574219 345.402344 164.730469 345.683594 164.835938 C 345.960938 164.941406 346.253906 164.988281 346.550781 164.980469 L 346.710938 164.980469 L 365.4375 163.714844 C 365.75 163.710938 366.046875 163.648438 366.332031 163.519531 C 366.617188 163.394531 366.863281 163.21875 367.074219 162.988281 C 367.285156 162.761719 367.445312 162.5 367.546875 162.207031 C 367.652344 161.910156 367.691406 161.609375 367.667969 161.296875 C 367.648438 160.988281 367.566406 160.695312 367.421875 160.417969 C 367.277344 160.140625 367.085938 159.90625 366.84375 159.707031 C 366.601562 159.511719 366.332031 159.371094 366.03125 159.285156 C 365.734375 159.199219 365.429688 159.179688 365.121094 159.21875 Z M 254.261719 102.820312 C 254.5625 102.8125 254.847656 102.75 255.121094 102.625 C 255.394531 102.503906 255.632812 102.335938 255.839844 102.117188 C 256.046875 101.902344 256.203125 101.652344 256.3125 101.375 C 256.417969 101.09375 256.46875 100.804688 256.460938 100.503906 L 256.023438 81.757812 C 256.015625 81.457031 255.949219 81.171875 255.828125 80.898438 C 255.703125 80.625 255.535156 80.386719 255.316406 80.179688 C 255.097656 79.972656 254.847656 79.816406 254.566406 79.710938 C 254.289062 79.605469 253.996094 79.558594 253.699219 79.566406 C 253.398438 79.574219 253.113281 79.640625 252.839844 79.765625 C 252.566406 79.886719 252.324219 80.058594 252.121094 80.277344 C 251.914062 80.496094 251.761719 80.746094 251.65625 81.027344 C 251.546875 81.308594 251.5 81.597656 251.511719 81.898438 L 252.085938 100.644531 C 252.09375 100.933594 252.15625 101.214844 252.273438 101.480469 C 252.386719 101.75 252.550781 101.984375 252.761719 102.1875 C 252.96875 102.390625 253.207031 102.546875 253.480469 102.65625 C 253.75 102.765625 254.03125 102.820312 254.320312 102.820312 Z M 287.699219 107.15625 C 287.921875 107.238281 288.152344 107.277344 288.390625 107.273438 C 288.878906 107.277344 289.320312 107.132812 289.714844 106.84375 C 290.109375 106.554688 290.382812 106.175781 290.527344 105.710938 L 296.585938 86.945312 C 296.675781 86.660156 296.707031 86.367188 296.683594 86.070312 C 296.65625 85.773438 296.578125 85.492188 296.4375 85.226562 C 296.300781 84.960938 296.117188 84.730469 295.890625 84.539062 C 295.664062 84.347656 295.40625 84.203125 295.121094 84.113281 C 294.835938 84.015625 294.546875 83.980469 294.25 84 C 293.949219 84.023438 293.667969 84.101562 293.402344 84.238281 C 293.132812 84.375 292.90625 84.558594 292.710938 84.785156 C 292.519531 85.015625 292.378906 85.273438 292.289062 85.558594 L 286.234375 104.324219 C 286.144531 104.609375 286.109375 104.902344 286.136719 105.199219 C 286.160156 105.496094 286.242188 105.777344 286.378906 106.042969 C 286.515625 106.308594 286.699219 106.539062 286.929688 106.730469 C 287.15625 106.921875 287.414062 107.066406 287.699219 107.15625 Z M 204.554688 129.585938 C 204.960938 129.898438 205.425781 130.058594 205.941406 130.058594 C 206.675781 130.0625 207.269531 129.773438 207.722656 129.1875 C 207.90625 128.953125 208.039062 128.691406 208.121094 128.40625 C 208.203125 128.117188 208.222656 127.824219 208.1875 127.527344 C 208.152344 127.230469 208.0625 126.953125 207.917969 126.691406 C 207.769531 126.429688 207.582031 126.207031 207.34375 126.023438 L 190.914062 113.175781 C 190.675781 112.992188 190.40625 112.859375 190.117188 112.78125 C 189.824219 112.703125 189.527344 112.683594 189.226562 112.726562 C 188.929688 112.765625 188.648438 112.859375 188.386719 113.011719 C 188.125 113.164062 187.902344 113.359375 187.71875 113.601562 C 187.535156 113.839844 187.402344 114.105469 187.324219 114.398438 C 187.246094 114.691406 187.226562 114.988281 187.269531 115.285156 C 187.308594 115.585938 187.402344 115.867188 187.554688 116.128906 C 187.707031 116.390625 187.902344 116.613281 188.144531 116.796875 Z M 115.925781 164.902344 C 115.445312 162.378906 114.738281 159.925781 113.804688 157.53125 C 112.871094 155.140625 111.726562 152.855469 110.375 150.675781 C 109.019531 148.492188 107.480469 146.453125 105.75 144.558594 C 104.023438 142.660156 102.136719 140.933594 100.089844 139.382812 C 96.328125 136.664062 92.367188 134.269531 88.210938 132.199219 C 73.582031 124.28125 56.972656 115.410156 57.074219 90.050781 C 57.074219 71.246094 65.683594 53.667969 79.421875 44.164062 C 88.628906 37.789062 104.464844 31.992188 127.527344 40.601562 C 151.382812 49.511719 157.597656 69.207031 159.199219 80.195312 C 161.714844 97.613281 156.351562 114.621094 149.757812 119.570312 C 143.167969 124.515625 141.207031 131.761719 144.015625 140.910156 C 145.335938 145.164062 147.265625 149.121094 149.796875 152.785156 C 149.972656 153.027344 150.191406 153.230469 150.445312 153.386719 C 150.699219 153.542969 150.976562 153.644531 151.273438 153.691406 C 151.566406 153.738281 151.863281 153.730469 152.152344 153.660156 C 152.445312 153.589844 152.710938 153.46875 152.957031 153.292969 C 153.199219 153.117188 153.398438 152.898438 153.554688 152.644531 C 153.710938 152.390625 153.816406 152.113281 153.863281 151.816406 C 153.910156 151.519531 153.898438 151.226562 153.828125 150.933594 C 153.757812 150.644531 153.636719 150.375 153.460938 150.132812 C 151.210938 146.855469 149.496094 143.316406 148.3125 139.523438 C 146.195312 132.277344 147.5625 126.753906 152.410156 123.113281 C 159.992188 117.410156 166.445312 99.097656 163.597656 79.5625 C 161.875 67.683594 155.101562 46.144531 129.050781 36.425781 C 104.167969 27.140625 86.90625 33.535156 76.808594 40.503906 C 61.882812 50.835938 52.578125 69.839844 52.519531 89.992188 C 52.519531 102.484375 56.183594 112.539062 63.863281 120.738281 C 70.394531 127.746094 78.710938 132.199219 86.035156 136.136719 C 89.953125 138.109375 93.695312 140.375 97.257812 142.929688 C 99.070312 144.304688 100.746094 145.835938 102.285156 147.511719 C 103.824219 149.191406 105.203125 150.992188 106.417969 152.917969 C 107.636719 154.839844 108.671875 156.859375 109.527344 158.96875 C 110.382812 161.078125 111.046875 163.246094 111.511719 165.476562 C 111.542969 165.75 111.625 166.007812 111.75 166.253906 C 111.878906 166.496094 112.046875 166.710938 112.253906 166.894531 C 112.457031 167.078125 112.691406 167.214844 112.949219 167.3125 C 113.207031 167.410156 113.472656 167.457031 113.75 167.457031 L 114.027344 167.457031 C 114.320312 167.410156 114.597656 167.3125 114.851562 167.160156 C 115.109375 167.007812 115.324219 166.808594 115.503906 166.570312 C 115.679688 166.332031 115.808594 166.066406 115.878906 165.777344 C 115.953125 165.488281 115.96875 165.195312 115.925781 164.902344 Z M 136.652344 99.4375 C 136.277344 99.09375 135.863281 98.808594 135.414062 98.582031 C 134.960938 98.351562 134.484375 98.1875 133.988281 98.089844 C 133.492188 97.988281 132.992188 97.957031 132.484375 97.996094 C 131.980469 98.03125 131.488281 98.136719 131.011719 98.308594 C 129.53125 98.691406 128.1875 99.359375 126.988281 100.3125 C 125.789062 101.261719 124.835938 102.417969 124.121094 103.769531 C 123.4375 103.042969 122.671875 102.414062 121.820312 101.890625 C 120.96875 101.363281 120.066406 100.960938 119.105469 100.675781 C 118.148438 100.394531 117.167969 100.238281 116.167969 100.21875 C 115.171875 100.195312 114.183594 100.304688 113.214844 100.542969 C 112.46875 100.777344 111.769531 101.101562 111.113281 101.519531 C 110.457031 101.941406 109.867188 102.4375 109.34375 103.015625 C 108.824219 103.59375 108.386719 104.230469 108.035156 104.929688 C 107.683594 105.625 107.429688 106.351562 107.277344 107.117188 C 105.136719 106.976562 102.40625 107.769531 100.386719 111.886719 C 92.824219 127.386719 117.035156 142.691406 118.085938 143.324219 C 118.445312 143.5625 118.839844 143.679688 119.273438 143.679688 C 119.777344 143.679688 120.230469 143.527344 120.632812 143.226562 C 121.035156 142.921875 121.308594 142.527344 121.445312 142.039062 C 121.582031 141.554688 121.5625 141.078125 121.378906 140.605469 C 121.195312 140.136719 120.890625 139.769531 120.460938 139.503906 C 120.242188 139.363281 98.683594 125.746094 104.445312 113.867188 C 105.335938 112.046875 106.1875 111.628906 106.859375 111.609375 C 107.175781 119.054688 112.007812 128.972656 117.90625 130.695312 C 118.332031 130.863281 118.773438 130.945312 119.230469 130.933594 C 119.6875 130.925781 120.125 130.828125 120.542969 130.640625 C 120.960938 130.453125 121.324219 130.195312 121.636719 129.859375 C 121.949219 129.527344 122.183594 129.144531 122.339844 128.714844 C 123.527344 125.386719 120.203125 119.3125 119.152344 117.507812 C 117.226562 114.03125 114.679688 111.089844 111.511719 108.679688 C 111.554688 108.253906 111.65625 107.84375 111.820312 107.449219 C 111.980469 107.054688 112.195312 106.691406 112.460938 106.355469 C 112.726562 106.023438 113.039062 105.734375 113.386719 105.488281 C 113.738281 105.246094 114.117188 105.054688 114.519531 104.917969 C 117.667969 103.96875 120.617188 106.464844 122.441406 108.601562 C 122.257812 109.53125 122.136719 110.46875 122.082031 111.414062 C 121.746094 116.617188 123.230469 124.617188 126.875 126.101562 C 127.21875 126.242188 127.574219 126.324219 127.941406 126.34375 C 128.3125 126.367188 128.675781 126.332031 129.035156 126.234375 C 129.390625 126.136719 129.722656 125.988281 130.03125 125.78125 C 130.339844 125.574219 130.605469 125.324219 130.832031 125.03125 L 131.191406 124.539062 C 129.386719 132.457031 128.714844 136.195312 130.121094 138.175781 C 130.292969 138.402344 130.5 138.585938 130.742188 138.730469 C 130.984375 138.878906 131.246094 138.972656 131.523438 139.023438 C 131.800781 139.070312 132.082031 139.066406 132.355469 139.011719 C 132.632812 138.953125 132.890625 138.847656 133.128906 138.695312 C 133.367188 138.542969 133.570312 138.351562 133.734375 138.121094 C 133.902344 137.894531 134.019531 137.644531 134.089844 137.371094 C 134.164062 137.097656 134.183594 136.820312 134.148438 136.539062 C 134.117188 136.257812 134.035156 135.992188 133.902344 135.742188 C 133.585938 134.316406 134.910156 128.535156 135.882812 124.28125 C 138.710938 111.570312 140.335938 102.941406 136.652344 99.4375 Z M 117.867188 125.726562 C 116.3125 124.292969 115.015625 122.660156 113.976562 120.820312 C 112.941406 118.980469 112.210938 117.027344 111.789062 114.957031 C 114.527344 118.144531 116.550781 121.734375 117.867188 125.726562 Z M 126.773438 116.164062 C 127.1875 117.328125 127.46875 118.523438 127.625 119.746094 C 127.230469 118.578125 126.945312 117.386719 126.773438 116.164062 Z M 134.019531 109.867188 C 133.664062 112.976562 132.910156 116.597656 132.140625 120.101562 C 131.753906 115.777344 130.339844 111.820312 127.902344 108.226562 L 127.347656 107.511719 C 127.5 106.9375 127.726562 106.386719 128.019531 105.871094 C 128.316406 105.351562 128.671875 104.878906 129.089844 104.453125 C 129.507812 104.027344 129.972656 103.664062 130.488281 103.359375 C 131 103.054688 131.546875 102.824219 132.121094 102.664062 C 132.515625 102.664062 133.207031 102.425781 133.464844 102.664062 C 133.722656 102.898438 134.695312 104.148438 134.019531 109.867188 Z M 107.554688 18.785156 C 107.851562 18.789062 108.140625 18.734375 108.417969 18.621094 C 108.695312 18.507812 108.9375 18.34375 109.148438 18.128906 C 109.359375 17.917969 109.519531 17.671875 109.632812 17.394531 C 109.742188 17.117188 109.796875 16.828125 109.789062 16.53125 L 109.789062 2.257812 C 109.789062 1.945312 109.730469 1.644531 109.605469 1.359375 C 109.484375 1.074219 109.308594 0.824219 109.082031 0.609375 C 108.855469 0.394531 108.59375 0.238281 108.300781 0.128906 C 108.007812 0.0234375 107.707031 -0.0195312 107.394531 0 C 107.097656 0.00390625 106.808594 0.0625 106.535156 0.175781 C 106.257812 0.292969 106.015625 0.457031 105.804688 0.667969 C 105.59375 0.878906 105.429688 1.121094 105.316406 1.394531 C 105.199219 1.671875 105.140625 1.957031 105.136719 2.257812 L 105.136719 16.550781 C 105.144531 16.859375 105.207031 17.15625 105.335938 17.441406 C 105.460938 17.726562 105.640625 17.972656 105.867188 18.183594 C 106.09375 18.394531 106.355469 18.554688 106.648438 18.65625 C 106.941406 18.761719 107.242188 18.804688 107.554688 18.785156 Z M 124.953125 24.25 C 125.273438 24.40625 125.609375 24.488281 125.964844 24.488281 C 126.382812 24.480469 126.773438 24.363281 127.128906 24.140625 C 127.484375 23.917969 127.753906 23.617188 127.941406 23.242188 L 134.398438 10.511719 C 134.527344 10.238281 134.601562 9.949219 134.613281 9.644531 C 134.628906 9.34375 134.582031 9.050781 134.480469 8.765625 C 134.375 8.480469 134.21875 8.226562 134.011719 8.003906 C 133.804688 7.78125 133.566406 7.609375 133.289062 7.484375 C 133.019531 7.347656 132.738281 7.269531 132.4375 7.246094 C 132.136719 7.222656 131.84375 7.257812 131.558594 7.351562 C 131.273438 7.441406 131.015625 7.585938 130.789062 7.78125 C 130.558594 7.976562 130.375 8.207031 130.238281 8.472656 L 123.785156 21.203125 C 123.652344 21.472656 123.578125 21.761719 123.5625 22.066406 C 123.542969 22.367188 123.585938 22.664062 123.6875 22.949219 C 123.785156 23.234375 123.9375 23.492188 124.140625 23.714844 C 124.34375 23.941406 124.582031 24.121094 124.855469 24.25 Z M 44.839844 52.320312 L 32.1875 45.710938 C 31.933594 45.609375 31.664062 45.558594 31.390625 45.558594 C 31.113281 45.558594 30.847656 45.605469 30.589844 45.703125 C 30.328125 45.796875 30.097656 45.9375 29.890625 46.121094 C 29.683594 46.300781 29.515625 46.515625 29.386719 46.757812 C 29.257812 47.003906 29.175781 47.261719 29.140625 47.535156 C 29.105469 47.808594 29.121094 48.078125 29.1875 48.347656 C 29.25 48.617188 29.363281 48.863281 29.515625 49.089844 C 29.671875 49.320312 29.863281 49.511719 30.089844 49.667969 L 42.742188 56.28125 C 43 56.421875 43.277344 56.511719 43.570312 56.546875 C 43.863281 56.582031 44.152344 56.558594 44.4375 56.480469 C 44.722656 56.398438 44.984375 56.269531 45.21875 56.085938 C 45.453125 55.90625 45.640625 55.6875 45.789062 55.429688 C 45.9375 55.160156 46.027344 54.875 46.0625 54.570312 C 46.09375 54.265625 46.0625 53.964844 45.976562 53.671875 C 45.886719 53.378906 45.742188 53.117188 45.542969 52.882812 C 45.347656 52.648438 45.113281 52.460938 44.839844 52.320312 Z M 143.402344 33.019531 C 143.976562 33.023438 144.476562 32.839844 144.910156 32.464844 L 155.597656 22.984375 C 155.820312 22.785156 155.996094 22.550781 156.128906 22.28125 C 156.257812 22.007812 156.332031 21.726562 156.347656 21.425781 C 156.363281 21.128906 156.324219 20.835938 156.222656 20.554688 C 156.125 20.273438 155.976562 20.019531 155.777344 19.796875 C 155.578125 19.574219 155.34375 19.398438 155.074219 19.265625 C 154.804688 19.136719 154.519531 19.0625 154.21875 19.046875 C 153.921875 19.03125 153.628906 19.070312 153.347656 19.171875 C 153.066406 19.269531 152.8125 19.417969 152.589844 19.617188 L 141.917969 29.082031 C 141.695312 29.277344 141.515625 29.511719 141.386719 29.78125 C 141.253906 30.050781 141.179688 30.335938 141.160156 30.632812 C 141.140625 30.933594 141.179688 31.222656 141.277344 31.507812 C 141.375 31.789062 141.523438 32.042969 141.722656 32.269531 C 142.171875 32.765625 142.734375 33.015625 143.402344 33.019531 Z M 58.953125 38.582031 C 59.496094 38.585938 59.980469 38.414062 60.398438 38.066406 C 60.628906 37.878906 60.8125 37.648438 60.949219 37.386719 C 61.089844 37.121094 61.171875 36.84375 61.199219 36.546875 C 61.226562 36.25 61.199219 35.957031 61.109375 35.671875 C 61.023438 35.386719 60.886719 35.128906 60.695312 34.902344 L 51.628906 23.875 C 51.429688 23.671875 51.203125 23.511719 50.945312 23.394531 C 50.6875 23.277344 50.414062 23.210938 50.132812 23.195312 C 49.847656 23.179688 49.574219 23.21875 49.304688 23.304688 C 49.035156 23.394531 48.789062 23.53125 48.574219 23.710938 C 48.355469 23.890625 48.175781 24.105469 48.039062 24.355469 C 47.902344 24.601562 47.8125 24.867188 47.777344 25.148438 C 47.738281 25.429688 47.753906 25.707031 47.820312 25.984375 C 47.886719 26.257812 48 26.511719 48.164062 26.746094 L 57.230469 37.769531 C 57.679688 38.304688 58.253906 38.578125 58.953125 38.582031 Z M 79.363281 23.933594 C 79.519531 24.382812 79.792969 24.75 80.183594 25.023438 C 80.570312 25.300781 81.003906 25.4375 81.480469 25.4375 C 81.746094 25.429688 82.003906 25.382812 82.253906 25.300781 C 82.53125 25.195312 82.78125 25.039062 83 24.839844 C 83.21875 24.636719 83.390625 24.398438 83.515625 24.128906 C 83.644531 23.859375 83.714844 23.574219 83.726562 23.277344 C 83.742188 22.980469 83.699219 22.691406 83.601562 22.410156 L 78.511719 8.292969 C 78.40625 8.011719 78.25 7.761719 78.042969 7.542969 C 77.835938 7.324219 77.597656 7.148438 77.320312 7.027344 C 77.046875 6.902344 76.757812 6.835938 76.457031 6.824219 C 76.15625 6.816406 75.863281 6.863281 75.582031 6.96875 C 75.300781 7.078125 75.050781 7.234375 74.832031 7.4375 C 74.609375 7.644531 74.4375 7.886719 74.3125 8.160156 C 74.1875 8.433594 74.121094 8.722656 74.113281 9.023438 C 74.101562 9.324219 74.148438 9.617188 74.257812 9.898438 Z M 42.5625 72.96875 L 26.726562 72.96875 C 26.421875 72.957031 26.125 73.007812 25.839844 73.117188 C 25.554688 73.226562 25.304688 73.390625 25.085938 73.601562 C 24.867188 73.816406 24.699219 74.0625 24.582031 74.34375 C 24.464844 74.625 24.40625 74.917969 24.410156 75.226562 C 24.421875 75.515625 24.488281 75.792969 24.605469 76.058594 C 24.726562 76.320312 24.886719 76.554688 25.097656 76.757812 C 25.304688 76.960938 25.542969 77.117188 25.808594 77.226562 C 26.078125 77.339844 26.355469 77.398438 26.644531 77.402344 L 42.484375 77.402344 C 42.78125 77.414062 43.070312 77.367188 43.351562 77.261719 C 43.628906 77.15625 43.878906 77 44.09375 76.796875 C 44.3125 76.59375 44.484375 76.355469 44.605469 76.082031 C 44.726562 75.808594 44.792969 75.523438 44.800781 75.226562 C 44.796875 74.929688 44.738281 74.644531 44.625 74.367188 C 44.511719 74.09375 44.347656 73.851562 44.140625 73.640625 C 43.929688 73.429688 43.691406 73.269531 43.417969 73.152344 C 43.144531 73.035156 42.859375 72.972656 42.5625 72.96875 Z M 218.292969 335.445312 C 204.851562 355.003906 197.128906 356.765625 159.953125 365.296875 C 153.402344 366.800781 148.769531 365.929688 146.214844 362.683594 C 144.828125 360.785156 144.007812 358.667969 143.761719 356.328125 L 144.492188 355.933594 C 167.257812 343.460938 174.78125 327.070312 172.207031 316.34375 C 172.105469 315.746094 171.953125 315.164062 171.75 314.59375 C 171.546875 314.023438 171.300781 313.476562 171.003906 312.949219 C 170.707031 312.421875 170.367188 311.925781 169.988281 311.457031 C 169.605469 310.988281 169.1875 310.554688 168.730469 310.15625 C 168.277344 309.757812 167.789062 309.402344 167.273438 309.089844 C 166.757812 308.773438 166.21875 308.507812 165.65625 308.285156 C 165.09375 308.0625 164.515625 307.890625 163.925781 307.769531 C 163.332031 307.644531 162.734375 307.574219 162.132812 307.550781 C 155.65625 307.550781 149.34375 318.875 146.925781 323.765625 C 142.253906 333.207031 139.007812 344.414062 139.1875 353.460938 C 136.851562 354.332031 134.496094 354.707031 133.03125 353.460938 C 130.832031 351.757812 128.855469 345.957031 131.863281 328.023438 C 134.140625 314.5 138.554688 297.871094 142.828125 281.796875 C 146.078125 269.5625 149.144531 258.042969 151.125 248.382812 C 155.675781 226.25 152.609375 210.652344 149.144531 201.464844 C 147.5 196.875 145.230469 192.621094 142.335938 188.695312 C 144.894531 187.308594 147.59375 186.289062 150.429688 185.648438 C 156.371094 184.757812 161.65625 176.382812 162.605469 172.128906 C 162.769531 171.714844 162.859375 171.285156 162.882812 170.839844 C 162.90625 170.394531 162.859375 169.957031 162.738281 169.53125 C 162.617188 169.101562 162.433594 168.703125 162.183594 168.335938 C 161.933594 167.964844 161.632812 167.644531 161.28125 167.375 C 159.082031 165.929688 156.25 167.613281 154.3125 169 C 148.265625 172.855469 141.898438 176.074219 135.207031 178.660156 C 132.457031 179.789062 130.082031 180.640625 128.0625 181.351562 C 131.03125 179.90625 134.554688 178.363281 137.960938 176.9375 C 150.6875 171.414062 157.894531 168.070312 158.351562 163.734375 C 158.417969 162.941406 158.273438 162.1875 157.917969 161.476562 C 157.5625 160.761719 157.046875 160.195312 156.371094 159.773438 C 152.410156 156.863281 144.492188 158.347656 132.160156 164.308594 C 126.574219 167.046875 121.160156 170.082031 115.90625 173.414062 C 115.628906 173.5625 115.390625 173.757812 115.195312 174.007812 C 115 174.253906 114.859375 174.53125 114.78125 174.835938 C 114.699219 175.144531 114.683594 175.453125 114.734375 175.761719 C 114.785156 176.074219 114.894531 176.363281 115.066406 176.628906 C 115.238281 176.894531 115.453125 177.117188 115.71875 177.289062 C 115.980469 177.464844 116.269531 177.578125 116.578125 177.632812 C 116.890625 177.6875 117.199219 177.675781 117.507812 177.597656 C 117.8125 177.523438 118.09375 177.386719 118.34375 177.195312 C 118.34375 177.195312 125.84375 172.40625 134.179688 168.367188 C 148.847656 161.257812 152.90625 162.785156 153.796875 163.4375 C 152.273438 165.035156 150.5 166.269531 148.472656 167.136719 C 145.046875 168.960938 140.554688 170.898438 136.199219 172.800781 C 128.617188 176.085938 121.46875 179.195312 118.558594 182.105469 C 116.261719 184.421875 116.996094 186.0625 117.648438 186.816406 C 118.300781 187.566406 120.003906 189.605469 135.585938 183.429688 C 143.027344 180.613281 150.113281 177.082031 156.84375 172.839844 C 157.253906 172.535156 157.609375 172.296875 157.914062 172.128906 C 156.84375 175.15625 153.0625 180.835938 149.699219 181.351562 C 145.257812 182.402344 141.070312 184.078125 137.128906 186.378906 C 134.039062 187.945312 128.894531 190.558594 127.644531 190.101562 C 127.394531 190.03125 127.136719 190.007812 126.878906 190.027344 C 126.617188 190.046875 126.367188 190.113281 126.128906 190.21875 C 125.890625 190.324219 125.679688 190.46875 125.488281 190.648438 C 125.300781 190.828125 125.148438 191.035156 125.03125 191.269531 C 124.914062 191.503906 124.839844 191.75 124.808594 192.007812 C 124.777344 192.269531 124.792969 192.523438 124.851562 192.777344 C 124.90625 193.035156 125.007812 193.269531 125.148438 193.492188 C 125.289062 193.710938 125.460938 193.902344 125.667969 194.0625 C 126.382812 194.398438 127.132812 194.554688 127.921875 194.535156 C 130.617188 194.535156 134.078125 192.894531 138.15625 190.816406 C 141.820312 195.347656 153.636719 213.144531 146.550781 247.53125 C 144.570312 257.011719 141.5625 268.515625 138.316406 280.6875 C 127.328125 322.101562 120.816406 349.796875 130.101562 357.082031 C 132.476562 358.941406 135.644531 359.261719 139.523438 358.03125 C 139.976562 360.742188 141.03125 363.1875 142.691406 365.375 C 143.386719 366.226562 144.171875 366.984375 145.046875 367.652344 C 145.921875 368.316406 146.863281 368.867188 147.871094 369.308594 C 148.875 369.75 149.921875 370.066406 151.003906 370.257812 C 152.085938 370.449219 153.175781 370.511719 154.273438 370.445312 C 156.539062 370.421875 158.777344 370.144531 160.984375 369.613281 C 198.59375 360.960938 207.601562 358.902344 222.035156 337.941406 C 222.203125 337.691406 222.320312 337.421875 222.382812 337.128906 C 222.441406 336.835938 222.445312 336.542969 222.390625 336.25 C 222.335938 335.957031 222.226562 335.683594 222.066406 335.433594 C 221.902344 335.179688 221.695312 334.972656 221.449219 334.800781 C 221.203125 334.632812 220.933594 334.515625 220.640625 334.453125 C 220.347656 334.394531 220.054688 334.390625 219.761719 334.445312 C 219.464844 334.5 219.195312 334.609375 218.941406 334.769531 C 218.691406 334.933594 218.480469 335.140625 218.3125 335.386719 Z M 143.542969 351.28125 C 144.28125 342.308594 146.703125 333.816406 150.808594 325.804688 C 155.777344 315.789062 160.269531 312.085938 161.972656 312.085938 C 164.804688 312.085938 166.902344 314.066406 167.734375 317.449219 C 169.871094 326.023438 163.160156 340.136719 143.542969 351.300781 Z M 143.542969 351.28125 " fill-opacity="1" fill-rule="nonzero"/></g></svg>